<?xml version="1.0" standalone="no"?>
<!DOCTYPE svg PUBLIC "-//W3C//DTD SVG 20010904//EN"
 "http://www.w3.org/TR/2001/REC-SVG-20010904/DTD/svg10.dtd">
<svg version="1.0" xmlns="http://www.w3.org/2000/svg"
 width="100.000000pt" height="100.000000pt" viewBox="0 0 100.000000 100.000000"
 preserveAspectRatio="xMidYMid meet">
<metadata>
Created by potrace 1.11, written by Peter Selinger 2001-2013
</metadata>
<g transform="translate(0.000000,100.000000) scale(0.100000,-0.100000)"
fill="#000000" stroke="none">
<path d="M450 890 c0 -5 9 -10 20 -10 14 0 20 -7 20 -23 0 -21 -7 -25 -55 -34
-57 -10 -77 0 -46 24 14 11 14 12 -1 13 -22 0 -68 -21 -68 -32 0 -4 9 -8 20
-8 31 0 24 -13 -24 -47 -42 -30 -45 -30 -60 -14 -11 13 -13 20 -5 28 6 6 10
16 8 22 -3 7 -22 -6 -44 -29 -27 -28 -34 -40 -23 -40 9 0 20 5 23 11 5 7 13 5
25 -6 18 -16 17 -18 -13 -61 -32 -46 -59 -59 -50 -24 8 29 -12 25 -25 -5 -16
-35 -16 -63 0 -47 20 20 40 15 33 -9 -9 -27 -13 -49 -14 -71 -1 -27 -51 -25
-51 2 0 11 -4 20 -10 20 -5 0 -10 -22 -10 -50 0 -27 5 -50 10 -50 6 0 10 9 10
20 0 14 7 20 23 20 20 0 25 -8 34 -52 12 -60 10 -67 -17 -50 -24 15 -27 -2 -8
-43 13 -30 28 -33 28 -5 0 31 13 24 47 -24 30 -43 31 -45 13 -61 -12 -11 -20
-13 -25 -6 -3 6 -14 11 -23 11 -12 0 -6 -10 20 -37 21 -20 41 -34 45 -30 3 4
1 13 -5 19 -9 9 -8 16 4 29 15 16 18 16 60 -14 48 -34 55 -47 24 -47 -28 0
-25 -15 5 -28 41 -19 58 -16 43 8 -16 25 -7 33 26 20 15 -5 38 -10 52 -10 19
0 24 -5 24 -25 0 -18 -5 -25 -20 -25 -11 0 -20 -4 -20 -10 0 -5 23 -10 50 -10
28 0 50 5 50 10 0 6 -9 10 -20 10 -27 0 -29 50 -2 51 22 1 44 5 71 14 24 7 29
-13 9 -33 -16 -16 12 -16 47 0 29 13 34 30 8 26 -31 -5 -19 20 24 51 39 28 42
29 57 12 14 -16 14 -19 -1 -34 -15 -15 -15 -17 -2 -17 19 0 75 57 66 67 -4 4
-13 1 -19 -5 -9 -9 -16 -8 -29 4 -16 15 -16 18 14 60 34 48 47 55 47 24 0 -11
4 -20 8 -20 11 0 32 46 32 68 -1 15 -2 15 -13 1 -24 -31 -34 -11 -24 46 9 48
13 55 34 55 16 0 23 -6 23 -20 0 -11 5 -20 10 -20 6 0 10 23 10 50 0 28 -4 50
-10 50 -5 0 -10 -9 -10 -20 0 -14 -7 -20 -24 -20 -20 0 -25 7 -34 53 -12 59
-9 66 18 49 24 -15 27 2 8 43 -13 30 -33 34 -25 5 9 -35 -18 -22 -50 24 -30
43 -31 45 -13 61 12 11 20 13 25 6 3 -6 14 -11 23 -11 12 0 6 10 -20 37 -21
20 -41 34 -45 30 -3 -4 -1 -13 5 -19 9 -9 8 -16 -4 -29 -15 -16 -18 -16 -60
14 -46 32 -59 59 -24 50 11 -3 20 -1 20 4 0 12 -44 33 -68 33 -16 -1 -16 -1 0
-13 31 -24 7 -36 -49 -24 -46 9 -53 14 -53 34 0 16 6 23 20 23 11 0 20 5 20
10 0 6 -22 10 -50 10 -27 0 -50 -4 -50 -10z m172 -108 c66 -29 132 -93 159
-155 31 -71 32 -182 2 -249 -89 -198 -346 -247 -499 -97 -115 113 -121 314
-11 427 93 97 232 126 349 74z"/>
<path d="M405 752 c-108 -36 -184 -157 -172 -276 5 -54 24 -113 33 -103 3 3 0
15 -6 28 -19 34 -21 134 -4 183 19 56 75 121 128 148 30 16 60 22 112 22 40 1
67 4 60 8 -19 13 -99 8 -151 -10z"/>
<path d="M470 705 c-26 -32 13 -81 48 -59 34 22 22 74 -18 74 -10 0 -23 -7
-30 -15z m54 -10 c7 -20 -3 -45 -19 -45 -7 0 -18 7 -25 15 -10 12 -10 18 0 30
7 8 18 15 25 15 7 0 15 -7 19 -15z"/>
<path d="M685 680 c10 -11 20 -18 23 -15 7 6 -18 35 -31 35 -5 0 -2 -9 8 -20z"/>
<path d="M353 663 c-7 -2 -13 -9 -13 -14 0 -6 9 -5 21 2 24 12 41 -3 36 -31
-3 -21 -47 -26 -47 -6 0 9 -4 16 -10 16 -15 0 -12 -16 4 -30 23 -19 61 -8 64
18 6 38 -21 59 -55 45z"/>
<path d="M600 656 c-19 -23 -8 -61 18 -64 32 -5 54 16 46 42 -11 36 -42 47
-64 22z m49 -14 c12 -23 -1 -45 -25 -40 -23 4 -31 37 -12 49 19 13 26 11 37
-9z"/>
<path d="M730 627 c0 -3 7 -24 15 -47 32 -91 8 -187 -65 -260 -55 -56 -116
-79 -194 -76 -30 2 -53 0 -51 -4 8 -13 98 -10 150 5 102 29 185 142 185 252 0
42 -19 121 -31 129 -5 3 -9 3 -9 1z"/>
<path d="M290 525 c-26 -32 13 -81 48 -59 22 14 27 41 12 59 -16 19 -44 19
-60 0z m50 -10 c14 -17 7 -45 -12 -45 -26 0 -40 17 -33 39 7 25 27 27 45 6z"/>
<path d="M470 525 c-26 -32 13 -81 48 -59 22 14 27 41 12 59 -16 19 -44 19
-60 0z m55 -16 c7 -21 -7 -39 -32 -39 -18 0 -27 41 -12 51 23 14 37 10 44 -12z"/>
<path d="M650 525 c-15 -18 -10 -45 13 -59 34 -22 73 27 47 59 -16 19 -44 19
-60 0z m50 -5 c11 -7 12 -14 4 -27 -13 -21 -25 -25 -43 -14 -8 5 -11 16 -6 30
7 23 21 26 45 11z"/>
<path d="M335 391 c-7 -24 10 -61 28 -61 26 0 49 26 45 51 -4 33 -63 41 -73
10z m63 -15 c5 -24 -17 -37 -39 -25 -25 13 -13 51 15 47 11 -2 22 -11 24 -22z"/>
<path d="M597 403 c-12 -12 -7 -50 8 -63 32 -27 82 23 55 55 -13 15 -51 20
-63 8z m57 -20 c9 -21 -16 -46 -37 -37 -17 6 -23 35 -10 47 12 13 41 7 47 -10z"/>
<path d="M470 345 c-15 -18 -10 -45 13 -59 34 -22 73 27 47 59 -16 19 -44 19
-60 0z m55 -16 c7 -21 -7 -39 -32 -39 -18 0 -27 41 -12 51 23 14 37 10 44 -12z"/>
<path d="M290 330 c0 -5 10 -15 23 -21 22 -12 22 -12 3 10 -21 23 -26 26 -26
11z"/>
</g>
</svg>
